<mxfile host="app.diagrams.net" modified="2022-05-29T18:29:19.755Z" agent="5.0 (Windows NT 10.0; Win64; x64) AppleWebKit/537.36 (KHTML, like Gecko) Chrome/102.0.5005.61 Safari/537.36" etag="3fU0DnDXsx57zHCSNQB1" version="18.0.7" type="github">
  <diagram id="mzyPExjLZmlj5HvYhDpD" name="Page-1">
    <mxGraphModel dx="1038" dy="583" grid="1" gridSize="10" guides="1" tooltips="1" connect="1" arrows="1" fold="1" page="1" pageScale="1" pageWidth="827" pageHeight="1169" math="0" shadow="0">
      <root>
        <mxCell id="0" />
        <mxCell id="1" parent="0" />
        <mxCell id="MK_wpVUh1U9wIsbpaLcY-1" value="" style="swimlane;startSize=0;" vertex="1" parent="1">
          <mxGeometry x="310" y="150" width="200" height="490" as="geometry" />
        </mxCell>
        <mxCell id="MK_wpVUh1U9wIsbpaLcY-6" value="Funcionario" style="shape=umlActor;verticalLabelPosition=bottom;verticalAlign=top;html=1;fontFamily=Helvetica;fontSize=12;fontColor=default;strokeColor=default;fillColor=default;labelPosition=center;align=center;" vertex="1" parent="1">
          <mxGeometry x="630" y="160" width="30" height="60" as="geometry" />
        </mxCell>
        <mxCell id="MK_wpVUh1U9wIsbpaLcY-11" value="Reitor" style="shape=umlActor;verticalLabelPosition=bottom;verticalAlign=top;html=1;fontFamily=Helvetica;fontSize=12;fontColor=default;strokeColor=default;fillColor=default;" vertex="1" parent="1">
          <mxGeometry x="700" y="320" width="30" height="60" as="geometry" />
        </mxCell>
        <mxCell id="MK_wpVUh1U9wIsbpaLcY-13" value="Decano" style="shape=umlActor;verticalLabelPosition=bottom;verticalAlign=top;html=1;fontFamily=Helvetica;fontSize=12;fontColor=default;strokeColor=default;fillColor=default;" vertex="1" parent="1">
          <mxGeometry x="580" y="320" width="30" height="60" as="geometry" />
        </mxCell>
        <mxCell id="MK_wpVUh1U9wIsbpaLcY-18" value="Extends" style="endArrow=block;endSize=16;endFill=0;html=1;rounded=0;fontFamily=Helvetica;fontSize=12;fontColor=#FF4D00;textOpacity=0;exitX=0.5;exitY=0;exitDx=0;exitDy=0;exitPerimeter=0;" edge="1" parent="1" source="MK_wpVUh1U9wIsbpaLcY-13">
          <mxGeometry x="-0.0625" y="10" width="160" relative="1" as="geometry">
            <mxPoint x="580" y="480" as="sourcePoint" />
            <mxPoint x="640" y="250" as="targetPoint" />
            <mxPoint as="offset" />
          </mxGeometry>
        </mxCell>
        <mxCell id="MK_wpVUh1U9wIsbpaLcY-21" value="Extends" style="endArrow=block;endSize=16;endFill=0;html=1;rounded=0;fontFamily=Helvetica;fontSize=12;fontColor=#FF4D00;textOpacity=0;exitX=0.5;exitY=0;exitDx=0;exitDy=0;exitPerimeter=0;" edge="1" parent="1" source="MK_wpVUh1U9wIsbpaLcY-11">
          <mxGeometry x="-0.0625" y="10" width="160" relative="1" as="geometry">
            <mxPoint x="605" y="330" as="sourcePoint" />
            <mxPoint x="650" y="250" as="targetPoint" />
            <mxPoint as="offset" />
          </mxGeometry>
        </mxCell>
        <mxCell id="MK_wpVUh1U9wIsbpaLcY-22" value="Usuário" style="shape=umlActor;verticalLabelPosition=bottom;verticalAlign=top;html=1;fontFamily=Helvetica;fontSize=12;fontColor=#000000;strokeColor=default;fillColor=default;" vertex="1" parent="1">
          <mxGeometry x="180" y="460" width="30" height="60" as="geometry" />
        </mxCell>
        <mxCell id="MK_wpVUh1U9wIsbpaLcY-23" value="Pessoa Físcia" style="shape=umlActor;verticalLabelPosition=bottom;verticalAlign=top;html=1;fontFamily=Helvetica;fontSize=12;fontColor=#000000;strokeColor=default;fillColor=default;" vertex="1" parent="1">
          <mxGeometry x="110" y="620" width="30" height="60" as="geometry" />
        </mxCell>
        <mxCell id="MK_wpVUh1U9wIsbpaLcY-24" value="Pessoa Jurídica" style="shape=umlActor;verticalLabelPosition=bottom;verticalAlign=top;html=1;fontFamily=Helvetica;fontSize=12;fontColor=#000000;strokeColor=default;fillColor=default;" vertex="1" parent="1">
          <mxGeometry x="220" y="620" width="30" height="60" as="geometry" />
        </mxCell>
        <mxCell id="MK_wpVUh1U9wIsbpaLcY-27" value="Extends" style="endArrow=block;endSize=16;endFill=0;html=1;rounded=0;fontFamily=Helvetica;fontSize=12;fontColor=#FF4D00;textOpacity=0;exitX=0.5;exitY=0;exitDx=0;exitDy=0;exitPerimeter=0;" edge="1" parent="1" source="MK_wpVUh1U9wIsbpaLcY-24">
          <mxGeometry x="-0.0625" y="10" width="160" relative="1" as="geometry">
            <mxPoint x="295" y="610" as="sourcePoint" />
            <mxPoint x="200" y="540" as="targetPoint" />
            <mxPoint as="offset" />
          </mxGeometry>
        </mxCell>
        <mxCell id="MK_wpVUh1U9wIsbpaLcY-28" value="Extends" style="endArrow=block;endSize=16;endFill=0;html=1;rounded=0;fontFamily=Helvetica;fontSize=12;fontColor=#FF4D00;textOpacity=0;exitX=0.5;exitY=0;exitDx=0;exitDy=0;exitPerimeter=0;" edge="1" parent="1" source="MK_wpVUh1U9wIsbpaLcY-23">
          <mxGeometry x="-0.0625" y="10" width="160" relative="1" as="geometry">
            <mxPoint x="135" y="570" as="sourcePoint" />
            <mxPoint x="180" y="540" as="targetPoint" />
            <mxPoint as="offset" />
          </mxGeometry>
        </mxCell>
      </root>
    </mxGraphModel>
  </diagram>
</mxfile>
